<svg xmlns="http://www.w3.org/2000/svg" viewBox="0 0 192 192">
  <rect width="192" height="192" rx="36" fill="#1e1e2e"/>

  <!-- Ghost body -->
  <path d="M12,90 A84,84,0,0,1,180,90 L180,142.8
           Q151.8,186 123.6,142.8
           Q96,186  67.8,142.8
           Q40.2,186  12,142.8 Z"
        fill="#cba6f7"/>

  <!-- Dome highlight -->
  <radialGradient id="hl" cx="44%" cy="30%" r="50%">
    <stop offset="0%"   stop-color="white" stop-opacity="0.28"/>
    <stop offset="100%" stop-color="white" stop-opacity="0"/>
  </radialGradient>
  <path d="M12,90 A84,84,0,0,1,180,90 L180,142.8
           Q151.8,186 123.6,142.8
           Q96,186  67.8,142.8
           Q40.2,186  12,142.8 Z"
        fill="url(#hl)"/>

  <!-- Eyes — white irises -->
  <circle cx="62.4" cy="78" r="18.6" fill="white"/>
  <circle cx="129.6" cy="78" r="18.6" fill="white"/>

  <!-- Pupils -->
  <circle cx="67.2" cy="81.6" r="10.2" fill="#0d0d1a"/>
  <circle cx="124.8" cy="81.6" r="10.2" fill="#0d0d1a"/>
</svg>
